<svg viewBox="0 0 18 18" fill="none" xmlns="http://www.w3.org/2000/svg"><path d="M14.233 11.15c-.369-.383-.814-.588-1.286-.588-.468 0-.917.201-1.3.585l-1.203 1.196c-.099-.053-.198-.102-.293-.152a4.832 4.832 0 01-.377-.201c-1.126-.714-2.15-1.645-3.13-2.85-.476-.6-.796-1.105-1.028-1.618.312-.285.601-.58.883-.866l.32-.323c.798-.797.798-1.83 0-2.629l-1.04-1.037c-.117-.118-.24-.24-.353-.36A17.945 17.945 0 004.71 1.6c-.369-.365-.81-.559-1.274-.559-.464 0-.913.194-1.294.559l-.007.007L.84 2.91a2.778 2.778 0 00-.825 1.767c-.092 1.11.236 2.143.487 2.819.616 1.66 1.537 3.199 2.91 4.847a17.902 17.902 0 005.962 4.662c.875.414 2.043.904 3.348.988.08.003.163.007.24.007.878 0 1.617-.315 2.195-.942.004-.008.011-.011.015-.019.198-.24.426-.456.666-.688.163-.155.33-.319.494-.49.377-.391.575-.847.575-1.314 0-.471-.202-.923-.586-1.303l-2.089-2.094zm1.362 4c-.004 0-.004.005 0 0-.148.16-.3.305-.464.464a9.995 9.995 0 00-.734.76c-.384.41-.837.604-1.43.604-.058 0-.119 0-.176-.004-1.13-.072-2.18-.512-2.967-.889a16.897 16.897 0 01-5.616-4.391C2.911 10.132 2.043 8.689 1.47 7.139c-.354-.946-.483-1.683-.426-2.378.038-.445.21-.813.525-1.129l1.297-1.295c.187-.175.385-.27.579-.27.24 0 .433.144.555.266l.011.011c.233.217.453.441.685.68.118.122.24.243.362.369L6.095 4.43c.404.403.404.775 0 1.178-.11.11-.217.22-.327.326-.32.327-.624.631-.955.927-.007.008-.015.012-.019.02-.327.326-.266.645-.198.862l.012.034c.27.653.65 1.269 1.229 2.002l.003.004c1.05 1.292 2.158 2.298 3.379 3.07.156.098.316.178.468.254.137.068.266.133.377.201.015.008.03.02.045.027.13.064.251.095.377.095.316 0 .513-.198.578-.262l1.301-1.3c.13-.129.335-.284.575-.284.236 0 .43.148.548.277l.007.007 2.097 2.094c.391.387.391.786.003 1.189zM9.729 4.282a4.827 4.827 0 012.625 1.36 4.84 4.84 0 011.362 2.621.51.51 0 00.506.426c.03 0 .057-.004.087-.008a.513.513 0 00.423-.593 5.856 5.856 0 00-1.648-3.172 5.87 5.87 0 00-3.177-1.645.516.516 0 00-.593.418.507.507 0 00.415.593zm8.263 3.658a9.635 9.635 0 00-2.713-5.223 9.659 9.659 0 00-5.23-2.71.512.512 0 10-.168 1.011 8.65 8.65 0 014.676 2.42 8.601 8.601 0 012.423 4.67.51.51 0 00.506.425c.03 0 .057-.004.088-.008a.503.503 0 00.418-.585z"/></svg>